<mxfile host="app.diagrams.net" modified="2024-07-16T01:23:41.435Z" agent="Mozilla/5.0 (Windows NT 10.0; Win64; x64) AppleWebKit/537.36 (KHTML, like Gecko) Chrome/126.0.0.0 Safari/537.36" etag="I5y7Fde8HncZ89Hzzl8S" version="24.6.5" type="device">
  <diagram name="Página-1" id="DT9OeoY0Q2-N_TracKJH">
    <mxGraphModel dx="1434" dy="824" grid="1" gridSize="10" guides="1" tooltips="1" connect="1" arrows="1" fold="1" page="1" pageScale="1" pageWidth="583" pageHeight="827" math="0" shadow="0">
      <root>
        <mxCell id="0" />
        <mxCell id="1" parent="0" />
        <mxCell id="soja8RKOqtq10Pzcqtg_-115" style="edgeStyle=orthogonalEdgeStyle;rounded=0;orthogonalLoop=1;jettySize=auto;html=1;exitX=1;exitY=0.5;exitDx=0;exitDy=0;entryX=0;entryY=0.5;entryDx=0;entryDy=0;endArrow=none;endFill=0;" edge="1" parent="1" source="soja8RKOqtq10Pzcqtg_-1" target="soja8RKOqtq10Pzcqtg_-7">
          <mxGeometry relative="1" as="geometry" />
        </mxCell>
        <mxCell id="soja8RKOqtq10Pzcqtg_-119" style="edgeStyle=orthogonalEdgeStyle;rounded=0;orthogonalLoop=1;jettySize=auto;html=1;exitX=0.5;exitY=1;exitDx=0;exitDy=0;entryX=0.5;entryY=0;entryDx=0;entryDy=0;endArrow=none;endFill=0;" edge="1" parent="1" source="soja8RKOqtq10Pzcqtg_-1" target="soja8RKOqtq10Pzcqtg_-112">
          <mxGeometry relative="1" as="geometry" />
        </mxCell>
        <mxCell id="soja8RKOqtq10Pzcqtg_-1" value="&lt;font style=&quot;font-size: 16px;&quot;&gt;Médico&lt;/font&gt;" style="rounded=0;whiteSpace=wrap;html=1;" vertex="1" parent="1">
          <mxGeometry x="100" y="210" width="120" height="60" as="geometry" />
        </mxCell>
        <mxCell id="soja8RKOqtq10Pzcqtg_-117" style="edgeStyle=orthogonalEdgeStyle;rounded=0;orthogonalLoop=1;jettySize=auto;html=1;exitX=0.5;exitY=1;exitDx=0;exitDy=0;entryX=0.5;entryY=0;entryDx=0;entryDy=0;endArrow=none;endFill=0;" edge="1" parent="1" source="soja8RKOqtq10Pzcqtg_-2" target="soja8RKOqtq10Pzcqtg_-113">
          <mxGeometry relative="1" as="geometry" />
        </mxCell>
        <mxCell id="soja8RKOqtq10Pzcqtg_-2" value="&lt;font style=&quot;font-size: 16px;&quot;&gt;Consulta&lt;/font&gt;" style="rounded=0;whiteSpace=wrap;html=1;" vertex="1" parent="1">
          <mxGeometry x="603" y="210" width="120" height="60" as="geometry" />
        </mxCell>
        <mxCell id="soja8RKOqtq10Pzcqtg_-120" style="edgeStyle=orthogonalEdgeStyle;rounded=0;orthogonalLoop=1;jettySize=auto;html=1;exitX=0.5;exitY=0;exitDx=0;exitDy=0;entryX=0.5;entryY=1;entryDx=0;entryDy=0;endArrow=none;endFill=0;" edge="1" parent="1" source="soja8RKOqtq10Pzcqtg_-3" target="soja8RKOqtq10Pzcqtg_-112">
          <mxGeometry relative="1" as="geometry" />
        </mxCell>
        <mxCell id="soja8RKOqtq10Pzcqtg_-121" style="edgeStyle=orthogonalEdgeStyle;rounded=0;orthogonalLoop=1;jettySize=auto;html=1;exitX=1;exitY=0.5;exitDx=0;exitDy=0;entryX=0;entryY=0.5;entryDx=0;entryDy=0;endArrow=none;endFill=0;" edge="1" parent="1" source="soja8RKOqtq10Pzcqtg_-3" target="soja8RKOqtq10Pzcqtg_-114">
          <mxGeometry relative="1" as="geometry" />
        </mxCell>
        <mxCell id="soja8RKOqtq10Pzcqtg_-3" value="&lt;font style=&quot;font-size: 16px;&quot;&gt;Convênio&lt;/font&gt;" style="rounded=0;whiteSpace=wrap;html=1;" vertex="1" parent="1">
          <mxGeometry x="100" y="559" width="120" height="60" as="geometry" />
        </mxCell>
        <mxCell id="soja8RKOqtq10Pzcqtg_-118" style="edgeStyle=orthogonalEdgeStyle;rounded=0;orthogonalLoop=1;jettySize=auto;html=1;entryX=0.5;entryY=1;entryDx=0;entryDy=0;endArrow=none;endFill=0;" edge="1" parent="1" source="soja8RKOqtq10Pzcqtg_-4" target="soja8RKOqtq10Pzcqtg_-113">
          <mxGeometry relative="1" as="geometry" />
        </mxCell>
        <mxCell id="soja8RKOqtq10Pzcqtg_-122" style="edgeStyle=orthogonalEdgeStyle;rounded=0;orthogonalLoop=1;jettySize=auto;html=1;exitX=0;exitY=0.5;exitDx=0;exitDy=0;entryX=1;entryY=0.5;entryDx=0;entryDy=0;endArrow=none;endFill=0;" edge="1" parent="1" source="soja8RKOqtq10Pzcqtg_-4" target="soja8RKOqtq10Pzcqtg_-114">
          <mxGeometry relative="1" as="geometry" />
        </mxCell>
        <mxCell id="soja8RKOqtq10Pzcqtg_-4" value="&lt;font style=&quot;font-size: 16px;&quot;&gt;Paciente&lt;/font&gt;" style="rounded=0;whiteSpace=wrap;html=1;" vertex="1" parent="1">
          <mxGeometry x="603" y="559" width="120" height="60" as="geometry" />
        </mxCell>
        <mxCell id="soja8RKOqtq10Pzcqtg_-7" value="Realiza" style="shape=rhombus;perimeter=rhombusPerimeter;whiteSpace=wrap;html=1;align=center;" vertex="1" parent="1">
          <mxGeometry x="354" y="210" width="120" height="60" as="geometry" />
        </mxCell>
        <mxCell id="soja8RKOqtq10Pzcqtg_-10" value="" style="endArrow=oval;endFill=1;endSize=13;html=1;rounded=1;curved=0;exitX=0.25;exitY=0;exitDx=0;exitDy=0;" edge="1" parent="1" source="soja8RKOqtq10Pzcqtg_-1">
          <mxGeometry width="160" relative="1" as="geometry">
            <mxPoint x="140" y="180" as="sourcePoint" />
            <mxPoint x="220" y="80" as="targetPoint" />
            <Array as="points">
              <mxPoint x="130" y="80" />
            </Array>
          </mxGeometry>
        </mxCell>
        <mxCell id="soja8RKOqtq10Pzcqtg_-11" value="" style="endArrow=circle;endFill=0;endSize=6;html=1;rounded=1;curved=0;" edge="1" parent="1">
          <mxGeometry width="160" relative="1" as="geometry">
            <mxPoint x="130" y="200" as="sourcePoint" />
            <mxPoint x="210" y="100" as="targetPoint" />
            <Array as="points">
              <mxPoint x="130" y="100" />
            </Array>
          </mxGeometry>
        </mxCell>
        <mxCell id="soja8RKOqtq10Pzcqtg_-12" value="" style="endArrow=oval;endFill=0;endSize=13;html=1;rounded=1;curved=0;" edge="1" parent="1">
          <mxGeometry width="160" relative="1" as="geometry">
            <mxPoint x="130" y="204" as="sourcePoint" />
            <mxPoint x="210" y="120" as="targetPoint" />
            <Array as="points">
              <mxPoint x="130" y="120" />
              <mxPoint x="170" y="120" />
            </Array>
          </mxGeometry>
        </mxCell>
        <mxCell id="soja8RKOqtq10Pzcqtg_-13" value="" style="endArrow=oval;endFill=0;endSize=13;html=1;rounded=1;curved=0;" edge="1" parent="1">
          <mxGeometry width="160" relative="1" as="geometry">
            <mxPoint x="130" y="204" as="sourcePoint" />
            <mxPoint x="210" y="140" as="targetPoint" />
            <Array as="points">
              <mxPoint x="130" y="140" />
              <mxPoint x="170" y="140" />
              <mxPoint x="190" y="140" />
            </Array>
          </mxGeometry>
        </mxCell>
        <mxCell id="soja8RKOqtq10Pzcqtg_-14" value="" style="endArrow=oval;endFill=0;endSize=13;html=1;rounded=1;curved=0;" edge="1" parent="1">
          <mxGeometry width="160" relative="1" as="geometry">
            <mxPoint x="130" y="210" as="sourcePoint" />
            <mxPoint x="210" y="160" as="targetPoint" />
            <Array as="points">
              <mxPoint x="130" y="160" />
              <mxPoint x="180" y="160" />
            </Array>
          </mxGeometry>
        </mxCell>
        <mxCell id="soja8RKOqtq10Pzcqtg_-15" value="" style="endArrow=oval;endFill=0;endSize=13;html=1;rounded=1;curved=0;" edge="1" parent="1">
          <mxGeometry width="160" relative="1" as="geometry">
            <mxPoint x="131" y="210" as="sourcePoint" />
            <mxPoint x="210" y="180" as="targetPoint" />
            <Array as="points">
              <mxPoint x="131" y="180" />
              <mxPoint x="180" y="180" />
            </Array>
          </mxGeometry>
        </mxCell>
        <mxCell id="soja8RKOqtq10Pzcqtg_-16" value="CRM (PK)" style="text;html=1;align=center;verticalAlign=middle;whiteSpace=wrap;rounded=0;" vertex="1" parent="1">
          <mxGeometry x="233" y="66" width="60" height="30" as="geometry" />
        </mxCell>
        <mxCell id="soja8RKOqtq10Pzcqtg_-17" value="Especialidade" style="text;html=1;align=center;verticalAlign=middle;whiteSpace=wrap;rounded=0;" vertex="1" parent="1">
          <mxGeometry x="224" y="85" width="60" height="30" as="geometry" />
        </mxCell>
        <mxCell id="soja8RKOqtq10Pzcqtg_-18" value="Nome" style="text;html=1;align=center;verticalAlign=middle;whiteSpace=wrap;rounded=0;" vertex="1" parent="1">
          <mxGeometry x="212" y="106" width="60" height="30" as="geometry" />
        </mxCell>
        <mxCell id="soja8RKOqtq10Pzcqtg_-19" value="Telefone" style="text;html=1;align=center;verticalAlign=middle;whiteSpace=wrap;rounded=0;" vertex="1" parent="1">
          <mxGeometry x="217" y="126" width="60" height="30" as="geometry" />
        </mxCell>
        <mxCell id="soja8RKOqtq10Pzcqtg_-20" value="E-mail" style="text;html=1;align=center;verticalAlign=middle;whiteSpace=wrap;rounded=0;" vertex="1" parent="1">
          <mxGeometry x="212" y="147" width="60" height="30" as="geometry" />
        </mxCell>
        <mxCell id="soja8RKOqtq10Pzcqtg_-21" value="Endereço" style="text;html=1;align=center;verticalAlign=middle;whiteSpace=wrap;rounded=0;" vertex="1" parent="1">
          <mxGeometry x="223" y="166" width="60" height="30" as="geometry" />
        </mxCell>
        <mxCell id="soja8RKOqtq10Pzcqtg_-22" value="" style="endArrow=oval;endFill=0;endSize=13;html=1;rounded=1;curved=0;exitX=0.25;exitY=0;exitDx=0;exitDy=0;" edge="1" parent="1">
          <mxGeometry width="160" relative="1" as="geometry">
            <mxPoint x="300" y="180" as="sourcePoint" />
            <mxPoint x="390" y="50" as="targetPoint" />
            <Array as="points">
              <mxPoint x="300" y="50" />
            </Array>
          </mxGeometry>
        </mxCell>
        <mxCell id="soja8RKOqtq10Pzcqtg_-23" value="" style="endArrow=circle;endFill=0;endSize=6;html=1;rounded=1;curved=0;" edge="1" parent="1">
          <mxGeometry width="160" relative="1" as="geometry">
            <mxPoint x="300" y="170" as="sourcePoint" />
            <mxPoint x="390" y="70" as="targetPoint" />
            <Array as="points">
              <mxPoint x="300" y="70" />
            </Array>
          </mxGeometry>
        </mxCell>
        <mxCell id="soja8RKOqtq10Pzcqtg_-24" value="" style="endArrow=oval;endFill=0;endSize=13;html=1;rounded=1;curved=0;" edge="1" parent="1">
          <mxGeometry width="160" relative="1" as="geometry">
            <mxPoint x="300" y="174" as="sourcePoint" />
            <mxPoint x="380" y="90" as="targetPoint" />
            <Array as="points">
              <mxPoint x="300" y="90" />
              <mxPoint x="340" y="90" />
            </Array>
          </mxGeometry>
        </mxCell>
        <mxCell id="soja8RKOqtq10Pzcqtg_-25" value="" style="endArrow=oval;endFill=0;endSize=13;html=1;rounded=1;curved=0;" edge="1" parent="1">
          <mxGeometry width="160" relative="1" as="geometry">
            <mxPoint x="300" y="174" as="sourcePoint" />
            <mxPoint x="380" y="110" as="targetPoint" />
            <Array as="points">
              <mxPoint x="300" y="110" />
              <mxPoint x="340" y="110" />
              <mxPoint x="360" y="110" />
            </Array>
          </mxGeometry>
        </mxCell>
        <mxCell id="soja8RKOqtq10Pzcqtg_-26" value="" style="endArrow=oval;endFill=0;endSize=13;html=1;rounded=1;curved=0;" edge="1" parent="1">
          <mxGeometry width="160" relative="1" as="geometry">
            <mxPoint x="300" y="180" as="sourcePoint" />
            <mxPoint x="380" y="130" as="targetPoint" />
            <Array as="points">
              <mxPoint x="300" y="130" />
              <mxPoint x="350" y="130" />
            </Array>
          </mxGeometry>
        </mxCell>
        <mxCell id="soja8RKOqtq10Pzcqtg_-27" value="" style="endArrow=oval;endFill=0;endSize=13;html=1;rounded=1;curved=0;" edge="1" parent="1">
          <mxGeometry width="160" relative="1" as="geometry">
            <mxPoint x="290" y="180" as="sourcePoint" />
            <mxPoint x="380" y="150" as="targetPoint" />
            <Array as="points">
              <mxPoint x="301" y="180" />
              <mxPoint x="301" y="150" />
              <mxPoint x="350" y="150" />
            </Array>
          </mxGeometry>
        </mxCell>
        <mxCell id="soja8RKOqtq10Pzcqtg_-29" value="" style="endArrow=oval;endFill=0;endSize=13;html=1;rounded=1;curved=0;exitX=0.25;exitY=0;exitDx=0;exitDy=0;" edge="1" parent="1">
          <mxGeometry width="160" relative="1" as="geometry">
            <mxPoint x="300" y="181" as="sourcePoint" />
            <mxPoint x="390" y="30" as="targetPoint" />
            <Array as="points">
              <mxPoint x="300" y="30" />
            </Array>
          </mxGeometry>
        </mxCell>
        <mxCell id="soja8RKOqtq10Pzcqtg_-30" value="Rua" style="text;html=1;align=center;verticalAlign=middle;whiteSpace=wrap;rounded=0;" vertex="1" parent="1">
          <mxGeometry x="388" y="16" width="60" height="30" as="geometry" />
        </mxCell>
        <mxCell id="soja8RKOqtq10Pzcqtg_-31" value="Número" style="text;html=1;align=center;verticalAlign=middle;whiteSpace=wrap;rounded=0;" vertex="1" parent="1">
          <mxGeometry x="396" y="35" width="60" height="30" as="geometry" />
        </mxCell>
        <mxCell id="soja8RKOqtq10Pzcqtg_-32" value="Complemento" style="text;html=1;align=center;verticalAlign=middle;whiteSpace=wrap;rounded=0;" vertex="1" parent="1">
          <mxGeometry x="407" y="60" width="60" height="22" as="geometry" />
        </mxCell>
        <mxCell id="soja8RKOqtq10Pzcqtg_-33" value="Bairro" style="text;html=1;align=center;verticalAlign=middle;whiteSpace=wrap;rounded=0;" vertex="1" parent="1">
          <mxGeometry x="388" y="76" width="60" height="30" as="geometry" />
        </mxCell>
        <mxCell id="soja8RKOqtq10Pzcqtg_-34" value="CEP" style="text;html=1;align=center;verticalAlign=middle;whiteSpace=wrap;rounded=0;" vertex="1" parent="1">
          <mxGeometry x="383" y="97" width="60" height="30" as="geometry" />
        </mxCell>
        <mxCell id="soja8RKOqtq10Pzcqtg_-35" value="Cidade" style="text;html=1;align=center;verticalAlign=middle;whiteSpace=wrap;rounded=0;" vertex="1" parent="1">
          <mxGeometry x="390" y="116" width="59" height="30" as="geometry" />
        </mxCell>
        <mxCell id="soja8RKOqtq10Pzcqtg_-36" value="Estado" style="text;html=1;align=center;verticalAlign=middle;whiteSpace=wrap;rounded=0;" vertex="1" parent="1">
          <mxGeometry x="389" y="136" width="60" height="30" as="geometry" />
        </mxCell>
        <mxCell id="soja8RKOqtq10Pzcqtg_-37" value="" style="endArrow=oval;endFill=1;endSize=13;html=1;rounded=1;curved=0;exitX=0.25;exitY=0;exitDx=0;exitDy=0;" edge="1" parent="1">
          <mxGeometry width="160" relative="1" as="geometry">
            <mxPoint x="623" y="210" as="sourcePoint" />
            <mxPoint x="713" y="80" as="targetPoint" />
            <Array as="points">
              <mxPoint x="623" y="80" />
            </Array>
          </mxGeometry>
        </mxCell>
        <mxCell id="soja8RKOqtq10Pzcqtg_-38" value="" style="endArrow=circle;endFill=0;endSize=6;html=1;rounded=1;curved=0;" edge="1" parent="1">
          <mxGeometry width="160" relative="1" as="geometry">
            <mxPoint x="623" y="200" as="sourcePoint" />
            <mxPoint x="703" y="100" as="targetPoint" />
            <Array as="points">
              <mxPoint x="623" y="100" />
            </Array>
          </mxGeometry>
        </mxCell>
        <mxCell id="soja8RKOqtq10Pzcqtg_-39" value="" style="endArrow=oval;endFill=0;endSize=13;html=1;rounded=1;curved=0;" edge="1" parent="1">
          <mxGeometry width="160" relative="1" as="geometry">
            <mxPoint x="623" y="204" as="sourcePoint" />
            <mxPoint x="703" y="120" as="targetPoint" />
            <Array as="points">
              <mxPoint x="623" y="120" />
              <mxPoint x="663" y="120" />
            </Array>
          </mxGeometry>
        </mxCell>
        <mxCell id="soja8RKOqtq10Pzcqtg_-40" value="ID (PK)" style="text;html=1;align=center;verticalAlign=middle;whiteSpace=wrap;rounded=0;" vertex="1" parent="1">
          <mxGeometry x="733" y="66" width="60" height="30" as="geometry" />
        </mxCell>
        <mxCell id="soja8RKOqtq10Pzcqtg_-41" value="Data" style="text;html=1;align=center;verticalAlign=middle;whiteSpace=wrap;rounded=0;" vertex="1" parent="1">
          <mxGeometry x="697" y="85" width="60" height="30" as="geometry" />
        </mxCell>
        <mxCell id="soja8RKOqtq10Pzcqtg_-42" value="Horário" style="text;html=1;align=center;verticalAlign=middle;whiteSpace=wrap;rounded=0;" vertex="1" parent="1">
          <mxGeometry x="712" y="106" width="60" height="30" as="geometry" />
        </mxCell>
        <mxCell id="soja8RKOqtq10Pzcqtg_-69" value="Rua" style="text;html=1;align=center;verticalAlign=middle;whiteSpace=wrap;rounded=0;" vertex="1" parent="1">
          <mxGeometry x="858" y="766" width="60" height="30" as="geometry" />
        </mxCell>
        <mxCell id="soja8RKOqtq10Pzcqtg_-70" value="Número" style="text;html=1;align=center;verticalAlign=middle;whiteSpace=wrap;rounded=0;" vertex="1" parent="1">
          <mxGeometry x="866" y="785" width="60" height="30" as="geometry" />
        </mxCell>
        <mxCell id="soja8RKOqtq10Pzcqtg_-71" value="Complemento" style="text;html=1;align=center;verticalAlign=middle;whiteSpace=wrap;rounded=0;" vertex="1" parent="1">
          <mxGeometry x="877" y="806" width="60" height="30" as="geometry" />
        </mxCell>
        <mxCell id="soja8RKOqtq10Pzcqtg_-72" value="Bairro" style="text;html=1;align=center;verticalAlign=middle;whiteSpace=wrap;rounded=0;" vertex="1" parent="1">
          <mxGeometry x="858" y="826" width="60" height="30" as="geometry" />
        </mxCell>
        <mxCell id="soja8RKOqtq10Pzcqtg_-73" value="CEP" style="text;html=1;align=center;verticalAlign=middle;whiteSpace=wrap;rounded=0;" vertex="1" parent="1">
          <mxGeometry x="853" y="847" width="60" height="30" as="geometry" />
        </mxCell>
        <mxCell id="soja8RKOqtq10Pzcqtg_-74" value="Cidade" style="text;html=1;align=center;verticalAlign=middle;whiteSpace=wrap;rounded=0;" vertex="1" parent="1">
          <mxGeometry x="860" y="866" width="59" height="30" as="geometry" />
        </mxCell>
        <mxCell id="soja8RKOqtq10Pzcqtg_-75" value="Estado" style="text;html=1;align=center;verticalAlign=middle;whiteSpace=wrap;rounded=0;" vertex="1" parent="1">
          <mxGeometry x="859" y="886" width="60" height="30" as="geometry" />
        </mxCell>
        <mxCell id="soja8RKOqtq10Pzcqtg_-84" value="" style="endArrow=oval;endFill=0;endSize=13;html=1;rounded=1;curved=0;" edge="1" parent="1">
          <mxGeometry width="160" relative="1" as="geometry">
            <mxPoint x="620" y="620" as="sourcePoint" />
            <mxPoint x="690" y="670" as="targetPoint" />
            <Array as="points">
              <mxPoint x="620" y="670" />
              <mxPoint x="673" y="670" />
            </Array>
          </mxGeometry>
        </mxCell>
        <mxCell id="soja8RKOqtq10Pzcqtg_-85" value="" style="endArrow=oval;endFill=0;endSize=13;html=1;rounded=1;curved=0;" edge="1" parent="1">
          <mxGeometry width="160" relative="1" as="geometry">
            <mxPoint x="620" y="640" as="sourcePoint" />
            <mxPoint x="690" y="690" as="targetPoint" />
            <Array as="points">
              <mxPoint x="620" y="690" />
              <mxPoint x="673" y="690" />
            </Array>
          </mxGeometry>
        </mxCell>
        <mxCell id="soja8RKOqtq10Pzcqtg_-86" value="" style="endArrow=oval;endFill=0;endSize=13;html=1;rounded=1;curved=0;" edge="1" parent="1">
          <mxGeometry width="160" relative="1" as="geometry">
            <mxPoint x="620" y="660" as="sourcePoint" />
            <mxPoint x="690" y="710" as="targetPoint" />
            <Array as="points">
              <mxPoint x="620" y="710" />
              <mxPoint x="673" y="710" />
            </Array>
          </mxGeometry>
        </mxCell>
        <mxCell id="soja8RKOqtq10Pzcqtg_-87" value="" style="endArrow=oval;endFill=0;endSize=13;html=1;rounded=1;curved=0;" edge="1" parent="1">
          <mxGeometry width="160" relative="1" as="geometry">
            <mxPoint x="620" y="680" as="sourcePoint" />
            <mxPoint x="690" y="730" as="targetPoint" />
            <Array as="points">
              <mxPoint x="620" y="730" />
              <mxPoint x="673" y="730" />
            </Array>
          </mxGeometry>
        </mxCell>
        <mxCell id="soja8RKOqtq10Pzcqtg_-88" value="" style="endArrow=oval;endFill=1;endSize=13;html=1;rounded=1;curved=0;" edge="1" parent="1">
          <mxGeometry width="160" relative="1" as="geometry">
            <mxPoint x="620" y="620" as="sourcePoint" />
            <mxPoint x="690" y="650" as="targetPoint" />
            <Array as="points">
              <mxPoint x="620" y="650" />
              <mxPoint x="673" y="650" />
            </Array>
          </mxGeometry>
        </mxCell>
        <mxCell id="soja8RKOqtq10Pzcqtg_-89" value="" style="endArrow=oval;endFill=0;endSize=13;html=1;rounded=1;curved=0;" edge="1" parent="1">
          <mxGeometry width="160" relative="1" as="geometry">
            <mxPoint x="785" y="730" as="sourcePoint" />
            <mxPoint x="855" y="780" as="targetPoint" />
            <Array as="points">
              <mxPoint x="785" y="780" />
              <mxPoint x="838" y="780" />
            </Array>
          </mxGeometry>
        </mxCell>
        <mxCell id="soja8RKOqtq10Pzcqtg_-90" value="" style="endArrow=oval;endFill=0;endSize=13;html=1;rounded=1;curved=0;" edge="1" parent="1">
          <mxGeometry width="160" relative="1" as="geometry">
            <mxPoint x="770" y="730" as="sourcePoint" />
            <mxPoint x="855" y="800" as="targetPoint" />
            <Array as="points">
              <mxPoint x="785" y="730" />
              <mxPoint x="785" y="800" />
              <mxPoint x="838" y="800" />
            </Array>
          </mxGeometry>
        </mxCell>
        <mxCell id="soja8RKOqtq10Pzcqtg_-91" value="" style="endArrow=oval;endFill=0;endSize=13;html=1;rounded=1;curved=0;" edge="1" parent="1">
          <mxGeometry width="160" relative="1" as="geometry">
            <mxPoint x="785" y="770" as="sourcePoint" />
            <mxPoint x="855" y="820" as="targetPoint" />
            <Array as="points">
              <mxPoint x="785" y="820" />
              <mxPoint x="838" y="820" />
            </Array>
          </mxGeometry>
        </mxCell>
        <mxCell id="soja8RKOqtq10Pzcqtg_-92" value="" style="endArrow=oval;endFill=0;endSize=13;html=1;rounded=1;curved=0;" edge="1" parent="1">
          <mxGeometry width="160" relative="1" as="geometry">
            <mxPoint x="785" y="790" as="sourcePoint" />
            <mxPoint x="855" y="840" as="targetPoint" />
            <Array as="points">
              <mxPoint x="785" y="840" />
              <mxPoint x="838" y="840" />
            </Array>
          </mxGeometry>
        </mxCell>
        <mxCell id="soja8RKOqtq10Pzcqtg_-94" value="CPF (PK)" style="text;html=1;align=center;verticalAlign=middle;whiteSpace=wrap;rounded=0;" vertex="1" parent="1">
          <mxGeometry x="698" y="636" width="60" height="30" as="geometry" />
        </mxCell>
        <mxCell id="soja8RKOqtq10Pzcqtg_-95" value="Nome" style="text;html=1;align=center;verticalAlign=middle;whiteSpace=wrap;rounded=0;" vertex="1" parent="1">
          <mxGeometry x="706" y="655" width="60" height="30" as="geometry" />
        </mxCell>
        <mxCell id="soja8RKOqtq10Pzcqtg_-96" value="Telefone" style="text;html=1;align=center;verticalAlign=middle;whiteSpace=wrap;rounded=0;" vertex="1" parent="1">
          <mxGeometry x="706" y="676" width="60" height="30" as="geometry" />
        </mxCell>
        <mxCell id="soja8RKOqtq10Pzcqtg_-97" value="E-mail" style="text;html=1;align=center;verticalAlign=middle;whiteSpace=wrap;rounded=0;" vertex="1" parent="1">
          <mxGeometry x="698" y="696" width="60" height="30" as="geometry" />
        </mxCell>
        <mxCell id="soja8RKOqtq10Pzcqtg_-98" value="Endereço" style="text;html=1;align=center;verticalAlign=middle;whiteSpace=wrap;rounded=0;" vertex="1" parent="1">
          <mxGeometry x="701" y="717" width="60" height="30" as="geometry" />
        </mxCell>
        <mxCell id="soja8RKOqtq10Pzcqtg_-99" value="" style="endArrow=oval;endFill=0;endSize=13;html=1;rounded=1;curved=0;" edge="1" parent="1">
          <mxGeometry width="160" relative="1" as="geometry">
            <mxPoint x="785" y="810" as="sourcePoint" />
            <mxPoint x="855" y="860" as="targetPoint" />
            <Array as="points">
              <mxPoint x="785" y="860" />
              <mxPoint x="838" y="860" />
            </Array>
          </mxGeometry>
        </mxCell>
        <mxCell id="soja8RKOqtq10Pzcqtg_-100" value="" style="endArrow=oval;endFill=0;endSize=13;html=1;rounded=1;curved=0;" edge="1" parent="1">
          <mxGeometry width="160" relative="1" as="geometry">
            <mxPoint x="785" y="830" as="sourcePoint" />
            <mxPoint x="855" y="880" as="targetPoint" />
            <Array as="points">
              <mxPoint x="785" y="880" />
              <mxPoint x="838" y="880" />
            </Array>
          </mxGeometry>
        </mxCell>
        <mxCell id="soja8RKOqtq10Pzcqtg_-101" value="" style="endArrow=oval;endFill=0;endSize=13;html=1;rounded=1;curved=0;" edge="1" parent="1">
          <mxGeometry width="160" relative="1" as="geometry">
            <mxPoint x="785" y="850" as="sourcePoint" />
            <mxPoint x="855" y="900" as="targetPoint" />
            <Array as="points">
              <mxPoint x="785" y="900" />
              <mxPoint x="838" y="900" />
            </Array>
          </mxGeometry>
        </mxCell>
        <mxCell id="soja8RKOqtq10Pzcqtg_-102" value="" style="endArrow=oval;endFill=0;endSize=13;html=1;rounded=1;curved=0;" edge="1" parent="1">
          <mxGeometry width="160" relative="1" as="geometry">
            <mxPoint x="110" y="619" as="sourcePoint" />
            <mxPoint x="180" y="669" as="targetPoint" />
            <Array as="points">
              <mxPoint x="110" y="669" />
              <mxPoint x="163" y="669" />
            </Array>
          </mxGeometry>
        </mxCell>
        <mxCell id="soja8RKOqtq10Pzcqtg_-103" value="" style="endArrow=oval;endFill=0;endSize=13;html=1;rounded=1;curved=0;" edge="1" parent="1">
          <mxGeometry width="160" relative="1" as="geometry">
            <mxPoint x="110" y="639" as="sourcePoint" />
            <mxPoint x="180" y="689" as="targetPoint" />
            <Array as="points">
              <mxPoint x="110" y="689" />
              <mxPoint x="163" y="689" />
            </Array>
          </mxGeometry>
        </mxCell>
        <mxCell id="soja8RKOqtq10Pzcqtg_-104" value="" style="endArrow=oval;endFill=0;endSize=13;html=1;rounded=1;curved=0;" edge="1" parent="1">
          <mxGeometry width="160" relative="1" as="geometry">
            <mxPoint x="110" y="659" as="sourcePoint" />
            <mxPoint x="180" y="709" as="targetPoint" />
            <Array as="points">
              <mxPoint x="110" y="709" />
              <mxPoint x="163" y="709" />
            </Array>
          </mxGeometry>
        </mxCell>
        <mxCell id="soja8RKOqtq10Pzcqtg_-105" value="" style="endArrow=oval;endFill=0;endSize=13;html=1;rounded=1;curved=0;" edge="1" parent="1">
          <mxGeometry width="160" relative="1" as="geometry">
            <mxPoint x="110" y="679" as="sourcePoint" />
            <mxPoint x="180" y="729" as="targetPoint" />
            <Array as="points">
              <mxPoint x="110" y="729" />
              <mxPoint x="163" y="729" />
            </Array>
          </mxGeometry>
        </mxCell>
        <mxCell id="soja8RKOqtq10Pzcqtg_-106" value="" style="endArrow=oval;endFill=1;endSize=13;html=1;rounded=1;curved=0;" edge="1" parent="1">
          <mxGeometry width="160" relative="1" as="geometry">
            <mxPoint x="110" y="619" as="sourcePoint" />
            <mxPoint x="180" y="649" as="targetPoint" />
            <Array as="points">
              <mxPoint x="110" y="649" />
              <mxPoint x="163" y="649" />
            </Array>
          </mxGeometry>
        </mxCell>
        <mxCell id="soja8RKOqtq10Pzcqtg_-107" value="ID (PK)" style="text;html=1;align=center;verticalAlign=middle;whiteSpace=wrap;rounded=0;" vertex="1" parent="1">
          <mxGeometry x="188" y="635" width="60" height="30" as="geometry" />
        </mxCell>
        <mxCell id="soja8RKOqtq10Pzcqtg_-108" value="Empresa" style="text;html=1;align=center;verticalAlign=middle;whiteSpace=wrap;rounded=0;" vertex="1" parent="1">
          <mxGeometry x="196" y="654" width="60" height="30" as="geometry" />
        </mxCell>
        <mxCell id="soja8RKOqtq10Pzcqtg_-109" value="Tipo" style="text;html=1;align=center;verticalAlign=middle;whiteSpace=wrap;rounded=0;" vertex="1" parent="1">
          <mxGeometry x="182" y="675" width="60" height="30" as="geometry" />
        </mxCell>
        <mxCell id="soja8RKOqtq10Pzcqtg_-110" value="Vencimento" style="text;html=1;align=center;verticalAlign=middle;whiteSpace=wrap;rounded=0;" vertex="1" parent="1">
          <mxGeometry x="193" y="695" width="60" height="30" as="geometry" />
        </mxCell>
        <mxCell id="soja8RKOqtq10Pzcqtg_-111" value="Percentual de participação" style="text;html=1;align=center;verticalAlign=middle;whiteSpace=wrap;rounded=0;" vertex="1" parent="1">
          <mxGeometry x="186" y="715" width="157" height="30" as="geometry" />
        </mxCell>
        <mxCell id="soja8RKOqtq10Pzcqtg_-112" value="Atende" style="shape=rhombus;perimeter=rhombusPerimeter;whiteSpace=wrap;html=1;align=center;" vertex="1" parent="1">
          <mxGeometry x="100" y="380" width="120" height="60" as="geometry" />
        </mxCell>
        <mxCell id="soja8RKOqtq10Pzcqtg_-113" value="Marca" style="shape=rhombus;perimeter=rhombusPerimeter;whiteSpace=wrap;html=1;align=center;" vertex="1" parent="1">
          <mxGeometry x="603" y="380" width="120" height="60" as="geometry" />
        </mxCell>
        <mxCell id="soja8RKOqtq10Pzcqtg_-114" value="Possui" style="shape=rhombus;perimeter=rhombusPerimeter;whiteSpace=wrap;html=1;align=center;" vertex="1" parent="1">
          <mxGeometry x="347" y="559" width="120" height="60" as="geometry" />
        </mxCell>
        <mxCell id="soja8RKOqtq10Pzcqtg_-116" style="edgeStyle=orthogonalEdgeStyle;rounded=0;orthogonalLoop=1;jettySize=auto;html=1;exitX=1;exitY=0.5;exitDx=0;exitDy=0;entryX=0;entryY=0.5;entryDx=0;entryDy=0;endArrow=none;endFill=0;" edge="1" parent="1" source="soja8RKOqtq10Pzcqtg_-7" target="soja8RKOqtq10Pzcqtg_-2">
          <mxGeometry relative="1" as="geometry">
            <mxPoint x="230" y="250" as="sourcePoint" />
            <mxPoint x="364" y="250" as="targetPoint" />
          </mxGeometry>
        </mxCell>
        <mxCell id="soja8RKOqtq10Pzcqtg_-123" value="(1,1)" style="text;html=1;align=center;verticalAlign=middle;whiteSpace=wrap;rounded=0;" vertex="1" parent="1">
          <mxGeometry x="214" y="214" width="60" height="30" as="geometry" />
        </mxCell>
        <mxCell id="soja8RKOqtq10Pzcqtg_-125" value="(0,n)" style="text;html=1;align=center;verticalAlign=middle;whiteSpace=wrap;rounded=0;" vertex="1" parent="1">
          <mxGeometry x="554" y="214" width="60" height="30" as="geometry" />
        </mxCell>
        <mxCell id="soja8RKOqtq10Pzcqtg_-128" value="(1,1)" style="text;html=1;align=center;verticalAlign=middle;whiteSpace=wrap;rounded=0;" vertex="1" parent="1">
          <mxGeometry x="148" y="269" width="60" height="30" as="geometry" />
        </mxCell>
        <mxCell id="soja8RKOqtq10Pzcqtg_-129" value="(0,n)" style="text;html=1;align=center;verticalAlign=middle;whiteSpace=wrap;rounded=0;" vertex="1" parent="1">
          <mxGeometry x="148" y="528" width="60" height="30" as="geometry" />
        </mxCell>
        <mxCell id="soja8RKOqtq10Pzcqtg_-132" value="&lt;font style=&quot;font-size: 13px;&quot;&gt;Gostaria de salientar que fiz o MER seguindo o enunciado ao pé da letra, onde pode exemplo diz que &lt;br&gt;&quot;Um médico pode realizar zero ou várias consultas, assim como zero ou várias consultas podem ser realizadas&lt;b&gt; por um médico&lt;/b&gt;&quot;. Eu acho que o mais certo, nesse caso, seria criar uma entidade associativa MedicoConvenio, onde iriam duas chaves primárias, de CRM e ID do convênio. O mesmo vale para as entidades paciente e convênio - poderíamos criar uma entidade associativa PacienteConvenio com as duas chaves primárias de cada um. Porém, resolvi seguir exatamente como diz o enunciado pois foi a maneira que a Professora Neusa Grando apresentou a aula relacionada ao trabalho - ela disse que devemos seguir à risca as regras de negócio. Obrigado e espero que entendam.&lt;/font&gt;" style="text;html=1;align=center;verticalAlign=middle;whiteSpace=wrap;rounded=0;" vertex="1" parent="1">
          <mxGeometry x="793" y="310" width="324" height="245" as="geometry" />
        </mxCell>
        <mxCell id="soja8RKOqtq10Pzcqtg_-133" value="(1,1)" style="text;html=1;align=center;verticalAlign=middle;whiteSpace=wrap;rounded=0;" vertex="1" parent="1">
          <mxGeometry x="608" y="529" width="60" height="30" as="geometry" />
        </mxCell>
        <mxCell id="soja8RKOqtq10Pzcqtg_-134" value="(0,n)" style="text;html=1;align=center;verticalAlign=middle;whiteSpace=wrap;rounded=0;" vertex="1" parent="1">
          <mxGeometry x="608" y="269" width="60" height="30" as="geometry" />
        </mxCell>
        <mxCell id="soja8RKOqtq10Pzcqtg_-135" value="(1,1&lt;span style=&quot;color: rgba(0, 0, 0, 0); font-family: monospace; font-size: 0px; text-align: start; text-wrap: nowrap;&quot;&gt;%3CmxGraphModel%3E%3Croot%3E%3CmxCell%20id%3D%220%22%2F%3E%3CmxCell%20id%3D%221%22%20parent%3D%220%22%2F%3E%3CmxCell%20id%3D%222%22%20value%3D%22(1%2C1)%22%20style%3D%22text%3Bhtml%3D1%3Balign%3Dcenter%3BverticalAlign%3Dmiddle%3BwhiteSpace%3Dwrap%3Brounded%3D0%3B%22%20vertex%3D%221%22%20parent%3D%221%22%3E%3CmxGeometry%20x%3D%22608%22%20y%3D%22529%22%20width%3D%2260%22%20height%3D%2230%22%20as%3D%22geometry%22%2F%3E%3C%2FmxCell%3E%3C%2Froot%3E%3C%2FmxGraphModel%3E&lt;/span&gt;&lt;span style=&quot;color: rgba(0, 0, 0, 0); font-family: monospace; font-size: 0px; text-align: start; text-wrap: nowrap;&quot;&gt;%3CmxGraphModel%3E%3Croot%3E%3CmxCell%20id%3D%220%22%2F%3E%3CmxCell%20id%3D%221%22%20parent%3D%220%22%2F%3E%3CmxCell%20id%3D%222%22%20value%3D%22(1%2C1)%22%20style%3D%22text%3Bhtml%3D1%3Balign%3Dcenter%3BverticalAlign%3Dmiddle%3BwhiteSpace%3Dwrap%3Brounded%3D0%3B%22%20vertex%3D%221%22%20parent%3D%221%22%3E%3CmxGeometry%20x%3D%22608%22%20y%3D%22529%22%20width%3D%2260%22%20height%3D%2230%22%20as%3D%22geometry%22%2F%3E%3C%2FmxCell%3E%3C%2Froot%3E%3C%2FmxGraphModel%3E&lt;/span&gt;)" style="text;html=1;align=center;verticalAlign=middle;whiteSpace=wrap;rounded=0;" vertex="1" parent="1">
          <mxGeometry x="555" y="560" width="60" height="30" as="geometry" />
        </mxCell>
        <mxCell id="soja8RKOqtq10Pzcqtg_-136" value="(0,n)&lt;span style=&quot;background-color: initial; text-wrap: nowrap; color: rgba(0, 0, 0, 0); font-family: monospace; font-size: 0px; text-align: start;&quot;&gt;3CmxGraphModel%3E%3Croot%3E%3CmxCell%20id%3D%220%22%2F%3E%3CmxCell%20id%3D%221%22%20parent%3D%220%22%2F%3E%3CmxCell%20id%3D%222%22%20value%3D%22(1%2C1)%22%20style%3D%22text%3Bhtml%3D1%3Balign%3Dcenter%3BverticalAlign%3Dmiddle%3BwhiteSpace%3Dwrap%3Brounded%3D0%3B%22%20vertex%3D%221%22%20parent%3D%221%22%3E%3CmxGeometry%20x%3D%22608%22%20y%3D%22529%22%20width%3D%2260%22%20height%3D%2230%22%20as%3D%22geometry%22%2F%3E%3C%2FmxCell%3E%3C%2Froot%3E%3C%2FmxGraphModel%3E&lt;/span&gt;&lt;span style=&quot;background-color: initial; text-wrap: nowrap; color: rgba(0, 0, 0, 0); font-family: monospace; font-size: 0px; text-align: start;&quot;&gt;%3CmxGraphModel%3E%3Croot%3E%3CmxCell%20id%3D%220%22%2F%3E%3CmxCell%20id%3D%221%22%20parent%3D%220%22%2F%3E%3CmxCell%20id%3D%222%22%20value%3D%22(1%2C1)%22%20style%3D%22text%3Bhtml%3D1%3Balign%3Dcenter%3BverticalAlign%3Dmiddle%3BwhiteSpace%3Dwrap%3Brounded%3D0%3B%22%20vertex%3D%221%22%20parent%3D%221%22%3E%3CmxGeometry%20x%3D%22608%22%20y%3D%22529%22%20width%3D%2260%22%20height%3D%2230%22%20as%3D%22geometry%22%2F%3E%3C%2FmxCell%3E%3C%2Froot%3E%3C%2FmxGraphModel%&lt;/span&gt;" style="text;html=1;align=center;verticalAlign=middle;whiteSpace=wrap;rounded=0;" vertex="1" parent="1">
          <mxGeometry x="215" y="560" width="60" height="30" as="geometry" />
        </mxCell>
      </root>
    </mxGraphModel>
  </diagram>
</mxfile>
